<?xml version="1.0" encoding="UTF-8" standalone="no"?>
<!-- Created with Inkscape (http://www.inkscape.org/) -->

<svg
   xmlns:dc="http://purl.org/dc/elements/1.1/"
   xmlns:cc="http://creativecommons.org/ns#"
   xmlns:rdf="http://www.w3.org/1999/02/22-rdf-syntax-ns#"
   xmlns:svg="http://www.w3.org/2000/svg"
   xmlns="http://www.w3.org/2000/svg"
   xmlns:sodipodi="http://sodipodi.sourceforge.net/DTD/sodipodi-0.dtd"
   xmlns:inkscape="http://www.inkscape.org/namespaces/inkscape"
   id="svg2"
   version="1.1"
   inkscape:version="0.48.4 r9939"
   width="531.49603"
   height="531.49603"
   xml:space="preserve"
   sodipodi:docname="whycon_outer150_inner70.png"><metadata
     id="metadata8"><rdf:RDF><cc:Work
         rdf:about=""><dc:format>image/svg+xml</dc:format><dc:type
           rdf:resource="http://purl.org/dc/dcmitype/StillImage" /><dc:title></dc:title></cc:Work></rdf:RDF></metadata><defs
     id="defs6" /><sodipodi:namedview
     pagecolor="#ffffff"
     bordercolor="#666666"
     borderopacity="1"
     objecttolerance="10"
     gridtolerance="10"
     guidetolerance="10"
     inkscape:pageopacity="0"
     inkscape:pageshadow="2"
     inkscape:window-width="529"
     inkscape:window-height="383"
     id="namedview4"
     showgrid="false"
     inkscape:zoom="0.89691213"
     inkscape:cx="-90.918305"
     inkscape:cy="443.46693"
     inkscape:window-x="564"
     inkscape:window-y="346"
     inkscape:window-maximized="0"
     inkscape:current-layer="g10"
     showguides="true"
     inkscape:guide-bbox="true"
     fit-margin-top="0"
     fit-margin-left="0"
     fit-margin-right="0"
     fit-margin-bottom="0" /><g
     id="g10"
     inkscape:groupmode="layer"
     inkscape:label="ink_ext_XXXXXX"
     transform="matrix(1.25,0,0,-1.25,4.3111768e-8,531.49604)"><path
       sodipodi:type="arc"
       style="fill:#000000;fill-opacity:1;stroke:none"
       id="path2993-6"
       sodipodi:cx="355.66473"
       sodipodi:cy="468.27332"
       sodipodi:rx="199.57362"
       sodipodi:ry="199.57362"
       d="m 214.54487,327.15346 c 77.93835,-77.93835 204.30137,-77.93836 282.23972,-10e-6 77.93835,77.93835 77.93836,204.30138 1e-5,282.23973 -77.93835,77.93835 -204.30138,77.93835 -282.23973,0 -77.93834,-77.93834 -77.93835,-204.30136 -2e-5,-282.23971 l 141.11988,141.11985 z"
       transform="matrix(1.0652631,0,0,-1.0652631,-166.2781,711.4327)"
       sodipodi:start="3.9269908"
       sodipodi:end="10.210176" /><path
       sodipodi:type="arc"
       style="fill:#ffffff;fill-opacity:1;stroke:none"
       id="path2993-6-8"
       sodipodi:cx="355.66473"
       sodipodi:cy="468.27332"
       sodipodi:rx="199.57362"
       sodipodi:ry="199.57362"
       d="m 555.23836,468.27332 c 0,110.22146 -89.35216,199.57362 -199.57363,199.57362 -110.22146,0 -199.57362,-89.35216 -199.57362,-199.57362 0,-110.22147 89.35216,-199.57363 199.57362,-199.57363 110.22147,0 199.57363,89.35216 199.57363,199.57363 z"
       transform="matrix(0.4971228,0,0,-0.4971228,35.789377,445.38777)" /></g></svg>